<svg width="85" height="84" viewBox="0 0 85 84" fill="none" xmlns="http://www.w3.org/2000/svg">
<circle cx="42" cy="42" r="41" transform="matrix(-1 0 0 1 84.5 0)" fill="white" stroke="#272262" stroke-width="2"/>
<g clip-path="url(#clip0_1756_1914)">
<path d="M23.8427 56.125H45.7656C46.7735 56.125 47.5938 55.3048 47.5938 54.2969V31.1406C47.5938 31.1126 47.5816 31.0882 47.5779 31.0614C47.5745 31.0359 47.5692 31.0106 47.5621 30.9858C47.5382 30.882 47.4868 30.7864 47.4134 30.7092L38.8833 22.1792C38.7867 22.0878 38.6632 22.0301 38.5311 22.0146C38.5055 22.0122 38.4812 22 38.4531 22H23.8354C22.8239 22 22 22.8202 22 23.8281V54.2969C22 55.3048 22.8263 56.125 23.8427 56.125ZM39.0625 24.0804L45.5133 30.5312H39.6719C39.5103 30.5312 39.3553 30.467 39.241 30.3528C39.1267 30.2385 39.0625 30.0835 39.0625 29.9219V24.0804ZM23.2188 23.8281C23.2188 23.4918 23.4954 23.2188 23.8354 23.2188H37.8438V29.9219C37.8438 30.9298 38.664 31.75 39.6719 31.75H46.375V54.2969C46.375 54.4585 46.3108 54.6135 46.1965 54.7278C46.0822 54.842 45.9272 54.9062 45.7656 54.9062H23.8427C23.7618 54.9072 23.6814 54.8922 23.6062 54.8621C23.531 54.832 23.4625 54.7874 23.4045 54.7308C23.3466 54.6742 23.3004 54.6068 23.2685 54.5323C23.2366 54.4579 23.2197 54.3779 23.2188 54.2969V23.8281Z" fill="#272262"/>
<path d="M27.4844 36.625H42.1094C42.271 36.625 42.426 36.5608 42.5403 36.4465C42.6545 36.3322 42.7188 36.1772 42.7188 36.0156C42.7188 35.854 42.6545 35.699 42.5403 35.5847C42.426 35.4705 42.271 35.4062 42.1094 35.4062H27.4844C27.3228 35.4062 27.1678 35.4705 27.0535 35.5847C26.9392 35.699 26.875 35.854 26.875 36.0156C26.875 36.1772 26.9392 36.3322 27.0535 36.4465C27.1678 36.5608 27.3228 36.625 27.4844 36.625ZM27.4844 41.5H42.1094C42.271 41.5 42.426 41.4358 42.5403 41.3215C42.6545 41.2072 42.7188 41.0522 42.7188 40.8906C42.7188 40.729 42.6545 40.574 42.5403 40.4597C42.426 40.3455 42.271 40.2812 42.1094 40.2812H27.4844C27.3228 40.2812 27.1678 40.3455 27.0535 40.4597C26.9392 40.574 26.875 40.729 26.875 40.8906C26.875 41.0522 26.9392 41.2072 27.0535 41.3215C27.1678 41.4358 27.3228 41.5 27.4844 41.5ZM27.4844 31.75H33.5781C33.7397 31.75 33.8947 31.6858 34.009 31.5715C34.1233 31.4572 34.1875 31.3022 34.1875 31.1406C34.1875 30.979 34.1233 30.824 34.009 30.7097C33.8947 30.5955 33.7397 30.5312 33.5781 30.5312H27.4844C27.3228 30.5312 27.1678 30.5955 27.0535 30.7097C26.9392 30.824 26.875 30.979 26.875 31.1406C26.875 31.3022 26.9392 31.4572 27.0535 31.5715C27.1678 31.6858 27.3228 31.75 27.4844 31.75ZM27.4844 46.375H42.1094C42.271 46.375 42.426 46.3108 42.5403 46.1965C42.6545 46.0822 42.7188 45.9272 42.7188 45.7656C42.7188 45.604 42.6545 45.449 42.5403 45.3347C42.426 45.2205 42.271 45.1562 42.1094 45.1562H27.4844C27.3228 45.1562 27.1678 45.2205 27.0535 45.3347C26.9392 45.449 26.875 45.604 26.875 45.7656C26.875 45.9272 26.9392 46.0822 27.0535 46.1965C27.1678 46.3108 27.3228 46.375 27.4844 46.375ZM27.4844 51.25H42.1094C42.271 51.25 42.426 51.1858 42.5403 51.0715C42.6545 50.9572 42.7188 50.8022 42.7188 50.6406C42.7188 50.479 42.6545 50.324 42.5403 50.2097C42.426 50.0955 42.271 50.0312 42.1094 50.0312H27.4844C27.3228 50.0312 27.1678 50.0955 27.0535 50.2097C26.9392 50.324 26.875 50.479 26.875 50.6406C26.875 50.8022 26.9392 50.9572 27.0535 51.0715C27.1678 51.1858 27.3228 51.25 27.4844 51.25Z" fill="#272262"/>
<path d="M48.2031 28.0938H53.6875V34.7969C53.6875 35.8048 54.5077 36.625 55.5156 36.625H62.2188V59.1719C62.2188 59.3335 62.1545 59.4885 62.0403 59.6028C61.926 59.717 61.771 59.7812 61.6094 59.7812H39.6865C39.6055 59.7822 39.5251 59.7672 39.4499 59.7371C39.3748 59.707 39.3062 59.6624 39.2483 59.6058C39.1903 59.5492 39.1441 59.4818 39.1122 59.4073C39.0804 59.3329 39.0635 59.2529 39.0625 59.1719V57.9531C39.0625 57.7915 38.9983 57.6365 38.884 57.5222C38.7697 57.408 38.6147 57.3438 38.4531 57.3438C38.2915 57.3438 38.1365 57.408 38.0222 57.5222C37.908 57.6365 37.8438 57.7915 37.8438 57.9531V59.1719C37.8438 60.1798 38.6701 61 39.6865 61H61.6094C62.6173 61 63.4375 60.1798 63.4375 59.1719V36.0156C63.4375 35.9876 63.4253 35.9632 63.4217 35.9364C63.4183 35.9109 63.413 35.8856 63.4058 35.8608C63.3819 35.757 63.3306 35.6614 63.2571 35.5842L54.7271 27.0542C54.6311 26.9621 54.5072 26.9046 54.3749 26.8908C54.3493 26.8872 54.3249 26.875 54.2969 26.875H48.2031C48.0415 26.875 47.8865 26.9392 47.7722 27.0535C47.658 27.1678 47.5938 27.3228 47.5938 27.4844C47.5938 27.646 47.658 27.801 47.7722 27.9153C47.8865 28.0295 48.0415 28.0938 48.2031 28.0938ZM55.5156 35.4062C55.354 35.4062 55.199 35.342 55.0847 35.2278C54.9705 35.1135 54.9062 34.9585 54.9062 34.7969V28.9554L61.3571 35.4062H55.5156Z" fill="#272262"/>
<path d="M50.6406 41.5H57.9531C58.1147 41.5 58.2697 41.4358 58.384 41.3215C58.4983 41.2072 58.5625 41.0522 58.5625 40.8906C58.5625 40.729 58.4983 40.574 58.384 40.4597C58.2697 40.3455 58.1147 40.2812 57.9531 40.2812H50.6406C50.479 40.2812 50.324 40.3455 50.2097 40.4597C50.0955 40.574 50.0312 40.729 50.0312 40.8906C50.0312 41.0522 50.0955 41.2072 50.2097 41.3215C50.324 41.4358 50.479 41.5 50.6406 41.5ZM50.6406 46.375H57.9531C58.1147 46.375 58.2697 46.3108 58.384 46.1965C58.4983 46.0822 58.5625 45.9272 58.5625 45.7656C58.5625 45.604 58.4983 45.449 58.384 45.3347C58.2697 45.2205 58.1147 45.1562 57.9531 45.1562H50.6406C50.479 45.1562 50.324 45.2205 50.2097 45.3347C50.0955 45.449 50.0312 45.604 50.0312 45.7656C50.0312 45.9272 50.0955 46.0822 50.2097 46.1965C50.324 46.3108 50.479 46.375 50.6406 46.375ZM50.6406 51.25H57.9531C58.1147 51.25 58.2697 51.1858 58.384 51.0715C58.4983 50.9572 58.5625 50.8022 58.5625 50.6406C58.5625 50.479 58.4983 50.324 58.384 50.2097C58.2697 50.0955 58.1147 50.0312 57.9531 50.0312H50.6406C50.479 50.0312 50.324 50.0955 50.2097 50.2097C50.0955 50.324 50.0312 50.479 50.0312 50.6406C50.0312 50.8022 50.0955 50.9572 50.2097 51.0715C50.324 51.1858 50.479 51.25 50.6406 51.25ZM50.6406 56.125H57.9531C58.1147 56.125 58.2697 56.0608 58.384 55.9465C58.4983 55.8322 58.5625 55.6772 58.5625 55.5156C58.5625 55.354 58.4983 55.199 58.384 55.0847C58.2697 54.9705 58.1147 54.9062 57.9531 54.9062H50.6406C50.479 54.9062 50.324 54.9705 50.2097 55.0847C50.0955 55.199 50.0312 55.354 50.0312 55.5156C50.0312 55.6772 50.0955 55.8322 50.2097 55.9465C50.324 56.0608 50.479 56.125 50.6406 56.125Z" fill="#272262"/>
</g>
<defs>
<clipPath id="clip0_1756_1914">
<rect width="41.4375" height="39" fill="white" transform="translate(22 22)"/>
</clipPath>
</defs>
</svg>
