<svg width="24" height="24" viewBox="0 0 24 24" fill="none" xmlns="http://www.w3.org/2000/svg">
<path d="M10.401 4.02506C10.2279 4.03837 9.78517 4.06501 9.419 4.08831C9.05284 4.10828 8.59679 4.14157 8.40372 4.16154C8.21065 4.18151 7.83783 4.21813 7.57153 4.24143C7.04558 4.28471 6.99232 4.30135 6.57289 4.50441C6.25333 4.66086 6.24001 4.66752 5.96372 4.9438C5.68743 5.21344 5.62751 5.29333 5.51101 5.54632C5.49103 5.58959 5.46107 5.62288 5.44443 5.62288C5.42779 5.62288 5.39783 5.66282 5.37785 5.71276C5.33458 5.82261 5.23472 5.99903 5.20476 6.02233C5.19144 6.03232 5.15815 6.09224 5.1282 6.15548C5.09824 6.21873 5.01502 6.37518 4.94178 6.50501C4.86855 6.6315 4.79532 6.77464 4.77534 6.82124C4.72874 6.93109 4.71876 6.94774 4.63221 7.10419C4.55232 7.25066 4.41584 7.29726 4.31597 7.21071C4.28268 7.18408 4.20279 7.14413 4.13622 7.12416C4.06631 7.10086 4.00307 7.0709 3.99308 7.05426C3.98309 7.04094 3.91985 7.01764 3.85327 7.00432C3.78337 6.99101 3.71013 6.96771 3.69016 6.95107C3.63357 6.90446 2.98113 6.78795 2.77807 6.78795C2.54839 6.78795 2.22216 6.88116 2.09567 6.98102C2.00246 7.05426 1.99581 7.07756 1.99581 7.28394C1.99581 7.49699 2.00246 7.52029 2.12896 7.67341C2.19886 7.76329 2.39859 7.973 2.56836 8.13944C2.88459 8.44902 2.92454 8.52558 2.82135 8.62544C2.78806 8.6554 2.73147 8.72198 2.69485 8.76858C2.65824 8.81519 2.60165 8.88842 2.56503 8.92836C2.53174 8.96831 2.46517 9.05486 2.41523 9.1181C2.36863 9.18135 2.30871 9.24793 2.28874 9.26124C2.26544 9.27456 2.24547 9.30119 2.24547 9.31783C2.24547 9.33781 2.18555 9.43767 2.11231 9.54086C2.03908 9.64738 1.97916 9.75058 1.97916 9.77055C1.97916 9.79052 1.95586 9.82714 1.92923 9.85044C1.9026 9.87374 1.8793 9.91701 1.8793 9.94697C1.87597 9.97693 1.84934 10.0602 1.81272 10.1334C1.77611 10.2066 1.74615 10.2965 1.74615 10.3331C1.74615 10.3697 1.72617 10.4396 1.69954 10.4896C1.67291 10.5362 1.64296 10.6427 1.62964 10.7226C1.61632 10.8025 1.58637 10.9023 1.56306 10.9489C1.53976 10.9955 1.51313 11.0987 1.49982 11.182C1.4865 11.2652 1.45654 11.3983 1.42991 11.4815C1.37998 11.6413 1.33005 11.871 1.27679 12.1972C1.25682 12.3071 1.2202 12.4935 1.19357 12.61C1.16694 12.7265 1.13032 12.9762 1.11368 13.1593C1.09703 13.3457 1.06375 13.5787 1.04044 13.6785C1.01049 13.815 0.997171 14.2245 1.0005 15.2431C1.0005 16.4315 1.01049 16.6545 1.05709 16.8276C1.08705 16.9408 1.11368 17.0672 1.11368 17.1072C1.11368 17.1738 1.19357 17.3768 1.28345 17.5399C1.29676 17.5666 1.35002 17.6698 1.39663 17.7663C1.44656 17.8595 1.50315 17.9594 1.52312 17.9827C1.54642 18.0026 1.61965 18.0958 1.68623 18.1891C1.85267 18.4154 2.21218 18.7383 2.29873 18.7383C2.31204 18.7383 2.34866 18.7583 2.37529 18.7816C2.44519 18.8415 2.71815 18.9347 2.94451 18.9746C3.05103 18.9946 3.51706 19.0046 4.04301 18.9979C4.88187 18.988 4.96509 18.9813 5.05829 18.9214C5.18479 18.8382 5.28798 18.735 5.36121 18.6085C5.43777 18.482 5.56094 18.3888 5.78064 18.3022L5.95706 18.229L11.6326 18.2257C14.755 18.2223 17.4946 18.229 17.7243 18.2423C18.0106 18.2556 18.1704 18.2823 18.2403 18.3189C18.2969 18.3488 18.3535 18.3721 18.3668 18.3721C18.4234 18.3721 18.6198 18.5486 18.6431 18.6151C18.6697 18.6984 18.7962 18.8315 18.9393 18.9247C19.0292 18.9813 19.1124 18.988 19.9546 18.9979C20.4706 19.0046 20.9499 18.9946 21.0531 18.9746C21.2795 18.9347 21.5558 18.8382 21.6124 18.7816C21.6357 18.7583 21.6756 18.7383 21.6989 18.7383C21.7222 18.7383 21.7688 18.7083 21.8021 18.6717C21.8354 18.6351 21.8787 18.6051 21.8986 18.6051C21.9519 18.6051 22.2715 18.2556 22.4079 18.0426C22.4778 17.9394 22.5411 17.8495 22.5511 17.8395C22.5644 17.8295 22.6143 17.733 22.6642 17.6232C22.7142 17.5133 22.7708 17.3935 22.7907 17.3569C22.8307 17.2903 22.8906 17.0439 22.9505 16.7077C22.9971 16.4681 22.9938 13.9515 22.9505 13.7118C22.9339 13.612 22.9006 13.379 22.8839 13.1959C22.864 13.0128 22.8274 12.7665 22.8007 12.6466C22.7741 12.5268 22.7441 12.347 22.7308 12.2472C22.7175 12.1473 22.6875 12.0075 22.6642 11.9343C22.6376 11.8644 22.6176 11.7678 22.6176 11.7179C22.6176 11.668 22.5877 11.5448 22.5511 11.4383C22.5145 11.3351 22.4845 11.2086 22.4845 11.1587C22.4845 11.1054 22.4612 11.0222 22.4346 10.9689C22.4079 10.9157 22.3746 10.8125 22.3647 10.7359C22.3513 10.6627 22.3247 10.5628 22.3014 10.5162C22.2781 10.4696 22.2481 10.3797 22.2382 10.3165C22.2248 10.2532 22.1949 10.1534 22.1683 10.1001C22.0351 9.79718 21.9386 9.61742 21.8986 9.58081C21.872 9.56083 21.852 9.52755 21.852 9.5109C21.852 9.49093 21.7655 9.36776 21.6623 9.23461C21.5558 9.10146 21.4459 8.95832 21.4193 8.91838C21.3927 8.8751 21.3128 8.7819 21.2462 8.70534C21.1763 8.62877 21.1197 8.5389 21.1197 8.49895C21.1197 8.45901 21.2262 8.32585 21.4026 8.15941C21.5558 8.00629 21.7522 7.79991 21.8387 7.70004C21.9885 7.52695 21.9952 7.50697 21.9985 7.30392C22.0018 7.11085 21.9918 7.08422 21.902 6.99434C21.7688 6.86452 21.5624 6.80793 21.2196 6.80793C20.91 6.8046 20.3707 6.89115 20.3108 6.95107C20.2908 6.97104 20.2442 6.98768 20.2043 6.98768C20.1677 6.98768 20.0778 7.01764 20.0045 7.05426C19.9313 7.09087 19.8581 7.12083 19.8348 7.12083C19.8148 7.12083 19.7582 7.15079 19.7116 7.18741C19.665 7.22403 19.5818 7.25398 19.5285 7.25398C19.432 7.25398 19.4153 7.23401 19.2389 6.87783C19.1357 6.67478 19.0159 6.44509 18.9726 6.37186C18.9293 6.29862 18.8694 6.1921 18.8428 6.13884C18.8128 6.08225 18.7596 5.99237 18.723 5.93911C18.6863 5.88252 18.6397 5.80263 18.6164 5.75603C18.5931 5.70943 18.5299 5.60623 18.4733 5.52302C18.4167 5.4398 18.3601 5.34992 18.3468 5.32329C18.2736 5.16683 18.0406 4.90386 17.8641 4.77404C17.751 4.69082 17.6511 4.62424 17.6378 4.62424C17.6278 4.62424 17.5812 4.59428 17.5346 4.55767C17.488 4.52105 17.4281 4.49109 17.4014 4.49109C17.3748 4.49109 17.3149 4.46113 17.2683 4.42451C17.2217 4.3879 17.1451 4.35794 17.1018 4.35794C17.0586 4.35794 16.9887 4.34129 16.9487 4.31799C16.9088 4.29469 16.6658 4.25807 16.4095 4.2381C16.1531 4.2148 15.787 4.18151 15.5939 4.16154C15.4008 4.14157 14.9614 4.10828 14.6119 4.08831C14.2657 4.06833 13.8063 4.03837 13.5966 4.02506C13.1539 3.99177 10.867 3.99177 10.401 4.02506ZM14.1958 4.4578C14.4788 4.47112 15.018 4.50108 15.3942 4.52438C15.7703 4.54435 16.1598 4.58097 16.2597 4.6076C16.3595 4.63423 16.5193 4.67085 16.6092 4.68749C16.8089 4.72743 17.0885 4.82064 17.1584 4.8739C17.1851 4.89387 17.245 4.92716 17.2916 4.94713C17.4114 5.00039 17.6977 5.2667 17.8608 5.47641C18.0039 5.66282 18.0406 5.72607 18.2037 6.04896C18.2536 6.15216 18.3102 6.26201 18.3268 6.28864C18.3435 6.31527 18.3701 6.37518 18.3901 6.42179C18.4067 6.46839 18.4433 6.54828 18.4733 6.59821C18.4999 6.65147 18.5232 6.70806 18.5232 6.72804C18.5232 6.74801 18.5499 6.82457 18.5865 6.90113C18.693 7.13415 18.7729 7.43041 18.7729 7.58686C18.7729 7.76662 18.6331 7.97633 18.4933 8.00629C18.4467 8.01628 18.3501 8.04624 18.2802 8.07287C18.1737 8.11281 17.2283 8.11947 11.9888 8.11614L5.82391 8.11281L5.60754 8.04291C5.33791 7.9497 5.20143 7.78326 5.21807 7.57022C5.23472 7.41044 5.32792 7.04427 5.38784 6.90446C5.41447 6.84787 5.46773 6.72804 5.50435 6.63816C5.54429 6.54495 5.60754 6.41513 5.64083 6.34855C5.67745 6.28198 5.7074 6.20542 5.7074 6.17879C5.7074 6.15216 5.72738 6.11221 5.75401 6.09224C5.78064 6.06894 5.8106 6.01568 5.82058 5.9724C5.83723 5.9025 6.04361 5.57295 6.15679 5.43314C6.30992 5.23674 6.67275 4.92383 6.74266 4.92383C6.76596 4.92383 6.80923 4.90386 6.83586 4.88056C6.90244 4.82397 7.17207 4.73076 7.38844 4.68749C7.48165 4.67085 7.64476 4.63423 7.75461 4.6076C7.93769 4.56432 8.5402 4.52105 9.76853 4.4578C10.4443 4.42451 13.6066 4.42451 14.1958 4.4578ZM3.09098 10.2665C3.14091 10.2932 3.20749 10.3165 3.23744 10.3165C3.28738 10.3165 3.4871 10.3997 3.71679 10.5195C3.78337 10.5528 3.86326 10.5828 3.89322 10.5828C3.91985 10.5828 3.99974 10.6127 4.06631 10.6493C4.13622 10.686 4.22609 10.7159 4.26604 10.7159C4.30599 10.7159 4.34593 10.7292 4.35925 10.7459C4.36923 10.7625 4.45911 10.8025 4.55897 10.8291C4.65884 10.8591 4.74871 10.899 4.7587 10.9157C4.76869 10.9356 4.80863 10.9489 4.84192 10.9489C4.90184 10.9489 4.97507 10.9789 5.36121 11.152C5.43777 11.1886 5.52099 11.2152 5.54762 11.2152C5.57758 11.2152 5.61753 11.2385 5.64083 11.2652C5.66413 11.2918 5.73071 11.3218 5.79395 11.3351C5.85387 11.3451 5.92045 11.375 5.94375 11.4017C5.96372 11.4283 5.99701 11.4483 6.01698 11.4483C6.09687 11.4483 6.3199 11.638 6.46637 11.8277C6.60618 12.0075 6.6661 12.1207 6.72934 12.3204C6.7593 12.4236 6.60618 12.6732 6.39646 12.863C6.28329 12.9629 6.17676 13.0461 6.16012 13.0461C6.14348 13.0461 6.1002 13.0694 6.06691 13.1027C5.98369 13.1759 5.47106 13.1792 5.32459 13.106C5.27133 13.0794 5.15815 13.0461 5.07826 13.0328C4.99837 13.0194 4.89185 12.9895 4.83859 12.9629C4.78866 12.9362 4.70211 12.9129 4.65218 12.9129C4.60225 12.9129 4.51903 12.8896 4.46577 12.863C4.41584 12.8364 4.28934 12.7997 4.18615 12.7831C4.08629 12.7631 3.98309 12.7332 3.96312 12.7165C3.93982 12.6966 3.8566 12.6732 3.77671 12.6599C3.69349 12.6466 3.5903 12.6167 3.54369 12.5934C3.49709 12.5701 3.39723 12.5401 3.32732 12.5301C3.25409 12.5168 3.18086 12.4935 3.16088 12.4802C3.14424 12.4669 3.04437 12.4302 2.94451 12.4036C2.47182 12.2738 2.26544 12.1406 2.1456 11.8976C2.05572 11.7112 2.0757 11.4815 2.21884 11.0654C2.23881 11.0089 2.2721 10.8957 2.2954 10.8125C2.42189 10.3597 2.78806 10.1101 3.09098 10.2665ZM21.366 10.3098C21.5325 10.423 21.6856 10.666 21.6856 10.8158C21.6856 10.8491 21.7056 10.919 21.7322 10.9722C21.7921 11.0921 21.9186 11.5581 21.9186 11.6546C21.9186 11.7811 21.7621 12.0707 21.6623 12.1373C21.6124 12.1706 21.5491 12.2139 21.5258 12.2372C21.5025 12.2605 21.4492 12.2805 21.4093 12.2805C21.366 12.2805 21.3028 12.3004 21.2662 12.3271C21.2295 12.3537 21.1397 12.3836 21.0664 12.397C20.9965 12.4103 20.9066 12.4402 20.8667 12.4635C20.8301 12.4868 20.7269 12.5168 20.6437 12.5301C20.5571 12.5434 20.4772 12.5667 20.4706 12.58C20.4606 12.5967 20.3674 12.6266 20.2609 12.6466C20.1577 12.6699 20.0312 12.7099 19.9812 12.7332C19.9313 12.7598 19.8481 12.7798 19.7982 12.7798C19.7482 12.7798 19.6617 12.8031 19.6051 12.833C19.5518 12.8597 19.4387 12.893 19.3554 12.9029C19.2722 12.9129 19.1757 12.9396 19.1357 12.9629C19.0958 12.9895 19.0059 13.0194 18.936 13.0294C18.8661 13.0427 18.7396 13.076 18.6564 13.106C18.4267 13.1925 18.0406 13.1759 17.8741 13.076C17.6811 12.9595 17.3948 12.6832 17.3215 12.5401C17.2516 12.4036 17.2383 12.2638 17.2916 12.2305C17.3116 12.2205 17.3249 12.1872 17.3249 12.1573C17.3249 12.0641 17.5512 11.7578 17.7343 11.608C17.9207 11.4516 18.1105 11.3551 18.6231 11.1487C18.723 11.1087 18.8528 11.0555 18.906 11.0288C19.0159 10.9789 19.2223 10.9057 19.452 10.8291C19.5319 10.8058 19.6151 10.7692 19.6351 10.7525C19.655 10.7392 19.7249 10.7159 19.7915 10.7026C19.8614 10.6893 19.9313 10.6593 19.9546 10.6327C19.9779 10.6061 20.0245 10.5828 20.0578 10.5828C20.0911 10.5828 20.191 10.5495 20.2775 10.5129C20.6503 10.3464 20.7102 10.3231 20.8534 10.2732C21.0864 10.1966 21.2196 10.2066 21.366 10.3098ZM15.028 12.8796C15.4841 12.9462 15.6838 12.9895 15.7504 13.0328C15.7903 13.0594 15.8469 13.0794 15.8735 13.0794C15.9567 13.0794 16.2397 13.2425 16.3795 13.3723C16.5293 13.5088 16.759 13.7851 16.759 13.8317C16.759 13.8483 16.7989 13.9349 16.8422 14.0281C16.8888 14.1179 16.9254 14.2178 16.9254 14.2478C16.9254 14.2777 16.9487 14.3576 16.9753 14.4209C17.1185 14.7637 16.972 15.1965 16.6258 15.4428C16.4194 15.5893 16.2164 15.6692 15.9101 15.7224C15.6472 15.769 15.1512 15.7757 11.9988 15.7757C9.5455 15.7757 8.32383 15.7624 8.18735 15.7391C7.78457 15.6658 7.71799 15.6492 7.60481 15.5859C7.27526 15.4095 7.1521 15.293 7.03892 15.0633C6.979 14.9368 6.96902 14.8702 6.98233 14.6872C7.0256 14.0281 7.38844 13.4455 7.92771 13.1593C8.0076 13.116 8.09747 13.0794 8.1241 13.0794C8.15073 13.0794 8.20732 13.0594 8.24727 13.0328C8.31384 12.9895 8.51357 12.9462 8.95297 12.8796C9.17933 12.8463 14.7983 12.8463 15.028 12.8796ZM3.04437 16.275C3.73011 16.3449 3.95313 16.3782 4.01971 16.4248C4.05965 16.4514 4.11624 16.4747 4.1462 16.4747C4.27603 16.4747 4.63554 16.6978 4.84858 16.9075C5.15483 17.2104 5.18479 17.3469 4.96509 17.4501C4.86189 17.5 4.79865 17.5 4.22942 17.4567C3.82664 17.4234 3.57698 17.3901 3.51041 17.3569C3.45714 17.3302 3.38058 17.3069 3.34397 17.3069C3.1742 17.3069 2.72481 17.034 2.52176 16.8076C2.34533 16.6112 2.31204 16.5579 2.31204 16.4681C2.31204 16.3982 2.33867 16.3582 2.42189 16.3083C2.5384 16.2351 2.61829 16.2317 3.04437 16.275ZM21.5524 16.3083C21.6523 16.3582 21.6856 16.3982 21.6856 16.4548C21.6856 16.538 21.4659 16.8442 21.3227 16.9574C21.1696 17.0772 21.0165 17.1738 20.9766 17.1738C20.9533 17.1738 20.8933 17.2037 20.8367 17.2403C20.7835 17.277 20.7036 17.3069 20.6603 17.3069C20.617 17.3069 20.5405 17.3302 20.4872 17.3569C20.3807 17.4134 19.7749 17.4734 19.3221 17.4734C18.8694 17.4734 18.7829 17.3569 19.0092 17.0539C19.1357 16.8842 19.4553 16.6079 19.5219 16.6079C19.5452 16.6079 19.5984 16.5779 19.645 16.5413C19.6916 16.5047 19.7582 16.4747 19.7948 16.4747C19.8281 16.4747 19.9014 16.4514 19.9546 16.4248C20.0578 16.3715 20.4406 16.3183 21.0198 16.2783C21.2129 16.265 21.3827 16.2484 21.396 16.2484C21.4093 16.245 21.4825 16.2717 21.5524 16.3083ZM17.7942 16.6045C17.8608 16.6578 17.8641 16.6745 17.8275 16.761C17.7809 16.8842 17.6344 17.024 17.5246 17.0573C17.478 17.0706 17.4114 17.1039 17.3748 17.1272C17.3382 17.1538 17.265 17.1738 17.2084 17.1738C17.1518 17.1738 17.0286 17.1971 16.9321 17.2237C16.8389 17.2537 16.5859 17.2903 16.3695 17.3069C16.1531 17.3236 15.9268 17.3535 15.8669 17.3702C15.8069 17.3868 15.5739 17.4134 15.3509 17.4234C15.1279 17.4367 14.7817 17.47 14.5786 17.5C14.036 17.5799 9.97158 17.5799 9.40236 17.4967C9.19265 17.4667 8.84645 17.4334 8.63674 17.4234C8.42702 17.4134 8.15739 17.3835 8.03756 17.3569C7.91772 17.3336 7.68803 17.3036 7.52159 17.2936C7.35848 17.2836 7.14877 17.2503 7.05889 17.2237C6.96902 17.1971 6.85251 17.1738 6.80258 17.1738C6.69938 17.1738 6.42642 17.0539 6.2966 16.9507C6.24667 16.9108 6.19008 16.8342 6.17011 16.7743C6.14015 16.6878 6.14348 16.6611 6.19008 16.6079C6.25 16.5413 6.33654 16.5413 11.9822 16.5413C17.5179 16.5413 17.721 16.5446 17.7942 16.6045Z" fill="#979797"/>
</svg>
