<svg width="32" height="32" viewBox="0 0 32 32" fill="none" xmlns="http://www.w3.org/2000/svg">
<path d="M25.428 18.5073L17.3346 26.5873V29.334H20.0813L28.1613 21.2407M30.268 18.1073L28.5613 16.4007C28.4972 16.3298 28.419 16.2731 28.3318 16.2341C28.2446 16.195 28.1502 16.1746 28.0546 16.174C27.8546 16.1873 27.668 16.254 27.5346 16.4007L26.2013 17.734L28.9346 20.4007L30.268 19.0673C30.5213 18.8007 30.5213 18.374 30.268 18.1073ZM14.668 24.0007H5.33464V10.6673L16.0013 17.334L26.668 10.6673V13.334H29.3346V8.00065C29.3346 6.53398 28.1346 5.33398 26.668 5.33398H5.33464C3.86797 5.33398 2.66797 6.53398 2.66797 8.00065V24.0007C2.66797 25.4673 3.86797 26.6673 5.33464 26.6673H14.668V24.0007ZM26.668 8.00065L16.0013 14.6673L5.33464 8.00065H26.668Z" fill="#272262"/>
</svg>
