<svg width="44" height="44" viewBox="0 0 44 44" fill="none" xmlns="http://www.w3.org/2000/svg">
<path d="M18.3327 7.33398C16.3878 7.33398 14.5225 8.1066 13.1472 9.48187C11.772 10.8571 10.9993 12.7224 10.9993 14.6673C10.9993 16.6122 11.772 18.4775 13.1472 19.8528C14.5225 21.228 16.3878 22.0007 18.3327 22.0007C20.2776 22.0007 22.1429 21.228 23.5181 19.8528C24.8934 18.4775 25.666 16.6122 25.666 14.6673C25.666 12.7224 24.8934 10.8571 23.5181 9.48187C22.1429 8.1066 20.2776 7.33398 18.3327 7.33398ZM32.0827 23.834C27.4993 23.834 23.8327 27.5007 23.8327 32.084C23.8327 36.6673 27.4993 40.334 32.0827 40.334C36.666 40.334 40.3327 36.6673 40.3327 32.084C40.3327 27.5007 36.666 23.834 32.0827 23.834ZM18.3327 25.6673C10.2293 25.6673 3.66602 28.949 3.66602 33.0007V36.6673H21.0827C20.4776 35.215 20.166 33.6573 20.166 32.084C20.1739 29.9102 20.7762 27.78 21.9077 25.924C20.7527 25.7773 19.5793 25.6673 18.3327 25.6673ZM32.0827 26.584C35.126 26.584 37.5827 29.0407 37.5827 32.084C37.5827 33.1107 37.3077 34.064 36.8127 34.834L29.3327 27.354C30.1027 26.859 31.056 26.584 32.0827 26.584ZM27.3527 29.334L34.8327 36.814C34.0627 37.309 33.1093 37.584 32.0827 37.584C29.0393 37.584 26.5827 35.1273 26.5827 32.084C26.5827 31.0573 26.8577 30.104 27.3527 29.334Z" fill="#272262"/>
</svg>
