<svg width="20" height="20" viewBox="0 0 20 20" fill="none" xmlns="http://www.w3.org/2000/svg">
<g clip-path="url(#clip0_1585_1621)">
<path fill-rule="evenodd" clip-rule="evenodd" d="M10 20C4.47688 20 0 15.5231 0 10C0 4.47688 4.47688 0 10 0C15.5231 0 20 4.47688 20 10C20 15.5231 15.5231 20 10 20ZM6.92937 9.25937H5.625V10.9075H6.92937V13.6962L5.625 14.0769V15.3125H14.3419V13.6169H8.97625V10.9075H13.0875V9.25937H8.97625V7.85C8.97625 6.63 9.63687 5.86937 10.7431 5.86937C11.6675 5.86937 12.2288 6.2975 12.8231 7.02563L14.375 5.8375C13.5825 4.83875 12.5588 4.0625 10.7263 4.0625C8.31625 4.0625 6.92937 5.50437 6.92937 7.80188V9.25937Z" fill="#272262"/>
</g>
<defs>
<clipPath id="clip0_1585_1621">
<rect width="20" height="20" fill="white"/>
</clipPath>
</defs>
</svg>
