<svg width="24" height="24" viewBox="0 0 24 24" fill="none" xmlns="http://www.w3.org/2000/svg">
<path fill-rule="evenodd" clip-rule="evenodd" d="M4.56751 5.64285C4.25123 5.72607 3.99686 5.90602 3.84795 6.15195C3.78554 6.25498 3.17532 7.57541 2.49191 9.08615C1.15629 12.0386 1.09259 12.2256 1.27242 12.6636C1.43317 13.055 1.65218 13.244 2.32128 13.5686C3.04566 13.9199 3.2777 13.971 3.65678 13.8627C4.18337 13.7122 4.24354 13.6102 5.66363 10.4571C6.8848 7.74562 6.95283 7.57667 6.95434 7.25113C6.95564 6.97759 6.92448 6.8528 6.80162 6.63917C6.61477 6.31449 6.49971 6.23098 5.77768 5.89605C5.12581 5.59371 4.91876 5.55036 4.56751 5.64285ZM18.3222 5.61908C18.0686 5.67046 17.1132 6.11438 16.8764 6.29095C16.6023 6.49524 16.4472 6.8414 16.4461 7.25113C16.4452 7.5789 16.5047 7.72695 17.7345 10.4572C19.1548 13.6104 19.2148 13.7122 19.7415 13.8627C20.1206 13.971 20.3527 13.9199 21.077 13.5686C21.7461 13.244 21.9651 13.055 22.1259 12.6636C22.3062 12.2244 22.2439 12.0423 20.8826 9.03386C20.1859 7.49431 19.5528 6.15035 19.4758 6.0472C19.2396 5.73128 18.7201 5.5385 18.3222 5.61908ZM10.2118 6.44547C10.0574 6.49043 9.38411 6.79764 8.71558 7.12805C7.76416 7.59832 7.49098 7.75782 7.45854 7.86206C7.43575 7.93537 6.8788 9.1787 6.22087 10.6251C5.56294 12.0714 5.03646 13.2743 5.05088 13.2981C5.09197 13.366 5.7875 13.7516 5.86889 13.7516C5.90897 13.7516 6.04378 13.6525 6.16844 13.5313C6.2931 13.4102 7.08967 12.7992 7.9386 12.1736C8.78753 11.548 9.88197 10.7322 10.3706 10.3607C11.2286 9.70842 11.2688 9.68522 11.5408 9.68522C11.6957 9.68522 11.9147 9.72835 12.0275 9.78104C12.1402 9.83379 12.5336 10.1834 12.9017 10.5579C13.2698 10.9326 13.6397 11.2753 13.7237 11.3196C14.0917 11.5138 14.613 11.473 14.9207 11.226C15.1914 11.0087 15.3053 10.6934 15.2822 10.2255C15.2632 9.84186 15.2306 9.74822 14.8517 8.98896C14.5054 8.29498 14.3869 8.114 14.0885 7.82288C13.6548 7.39992 12.5802 6.76276 11.9517 6.55589C11.3964 6.37314 10.6275 6.32434 10.2118 6.44547ZM13.0462 6.39135C13.0462 6.39713 13.2797 6.54146 13.5651 6.71196C13.9032 6.91402 14.2424 7.18166 14.5388 7.48022C14.952 7.89654 15.0274 8.00908 15.3627 8.71158C15.789 9.60458 15.8666 9.85962 15.8677 10.3725C15.8692 11.0422 15.4989 11.6268 14.9034 11.8949C14.6837 11.9938 14.6739 12.0065 14.7943 12.0368C14.8832 12.0593 14.9829 12.0271 15.0988 11.9384C15.3615 11.7373 15.7152 11.6325 16.1313 11.6325C16.4394 11.6325 16.5709 11.6645 16.8517 11.8076C17.2626 12.0171 17.3618 12.1312 17.8453 12.9499C18.0498 13.2963 18.2344 13.5794 18.2557 13.5789C18.4913 13.5735 18.4544 13.4731 17.1711 10.6285C16.1002 8.25472 15.8635 7.77231 15.7437 7.71933C15.6647 7.6844 15.3727 7.49007 15.0949 7.2875C14.4807 6.83962 13.7959 6.50068 13.3661 6.4319C13.1901 6.40378 13.0462 6.38551 13.0462 6.39135ZM10.9345 10.6505C10.6605 10.8664 9.83011 11.4895 9.08922 12.0352C7.32787 13.3326 6.68981 13.826 6.29737 14.194C6.12012 14.3602 5.96105 14.4961 5.94388 14.4961C5.92665 14.4961 5.77443 14.4059 5.60554 14.2957C5.43659 14.1854 5.28628 14.0952 5.27147 14.0952C5.20372 14.0952 5.25558 14.3708 5.35448 14.5363C5.48616 14.7568 5.71544 14.8866 6.05737 14.9344C6.19679 14.9539 6.31106 14.9986 6.31123 15.0337C6.3114 15.0688 6.33761 15.1934 6.36949 15.3105C6.49067 15.7556 6.94104 16.0959 7.4124 16.0985C7.6281 16.0997 7.6464 16.1124 7.68024 16.285C7.76893 16.7375 8.13151 17.067 8.60764 17.1277C8.8518 17.1588 8.85741 17.1644 8.96057 17.4809C9.1532 18.0716 9.64814 18.5052 10.1296 18.5052C10.298 18.5052 10.4659 18.4425 10.7493 18.2736C10.963 18.1462 11.1379 18.0279 11.1379 18.0106C11.1379 17.9933 10.9249 17.6271 10.6645 17.197C10.1063 16.2745 10.0701 16.1875 10.0641 15.7532C10.0577 15.2913 10.2014 14.8958 10.4976 14.5596C10.7609 14.2607 11.2305 13.9813 11.4716 13.9798C11.5705 13.9792 11.7071 13.8829 11.9114 13.6696C12.0939 13.4791 12.3207 13.3124 12.501 13.2361C12.7426 13.134 12.8211 13.0628 12.9479 12.8312C13.1062 12.5418 13.4311 12.2568 13.7759 12.1051L13.9723 12.0186L13.7322 11.9457C13.4181 11.8502 13.1714 11.6543 12.6253 11.0662C12.0889 10.4887 11.7921 10.258 11.5856 10.258C11.4826 10.258 11.2705 10.3858 10.9345 10.6505ZM15.627 12.3136C15.422 12.4277 15.123 12.7041 15.123 12.7796C15.123 12.8034 15.0292 12.7741 14.9147 12.7145C14.6677 12.586 14.1913 12.5711 13.9275 12.6835C13.6743 12.7915 13.3933 13.138 13.3142 13.4398C13.2522 13.6763 13.2343 13.6943 13.0608 13.6943C12.9582 13.6943 12.7926 13.7291 12.6927 13.7717C12.478 13.8633 12.1642 14.2105 12.1148 14.4113C12.0834 14.5393 12.0515 14.5534 11.795 14.5534C11.0613 14.5534 10.5206 15.2141 10.6552 15.9461C10.704 16.2117 11.9878 18.3218 12.2361 18.5448C12.7587 19.0137 13.6825 18.8063 13.9444 18.1613C14.0044 18.0135 14.0287 18.0044 14.3551 18.0068C14.5704 18.0084 14.7681 17.9742 14.8761 17.9166C15.0697 17.8134 15.3761 17.4812 15.4262 17.3201C15.4527 17.2348 15.5054 17.2195 15.714 17.2364C16.0982 17.2676 16.3387 17.2015 16.5587 17.0044C16.8148 16.775 16.9752 16.4504 16.9752 16.1615C16.9752 15.9453 16.987 15.9291 17.1856 15.8741C17.7543 15.7168 18.068 15.2819 18.0316 14.7013C18.0112 14.3759 17.9735 14.2933 17.4581 13.4475C16.8197 12.3996 16.6614 12.252 16.1422 12.2221C15.9092 12.2087 15.772 12.2331 15.627 12.3136Z" fill="white"/>
</svg>
