<svg width="570" height="144" viewBox="0 0 570 144" fill="none" xmlns="http://www.w3.org/2000/svg">
<g clip-path="url(#clip0_1467_975)">
<path d="M483.799 97.6196C483.789 97.5396 483.779 97.4596 483.769 97.3696C484.409 96.9096 485.059 96.4596 485.679 95.9896C489.159 93.3596 492.189 90.2996 494.689 86.7196C495.999 84.8396 495.949 84.8296 498.279 84.8296C503.349 84.8296 508.409 84.8296 513.479 84.8296C514.949 84.8296 516.099 84.2696 516.809 82.9996C518.209 80.5096 516.489 77.6396 513.589 77.6296C509.289 77.6096 504.979 77.6296 500.679 77.6196C500.389 77.6196 500.069 77.7496 499.799 77.4796C501.279 73.6896 502.289 69.7896 502.649 65.7296C502.699 65.1196 502.919 64.9996 503.479 64.9996C506.199 65.0296 508.909 65.0196 511.629 65.0196C529.539 65.0196 547.459 65.0196 565.369 65.0196C567.649 65.0196 569.359 63.4696 569.359 61.4196C569.359 59.2596 567.719 57.7996 565.319 57.7996C558.329 57.7996 551.339 57.7996 544.349 57.7996C530.739 57.7996 517.129 57.7996 503.519 57.7996C503.139 57.7996 502.719 57.9696 502.659 57.2496C502.419 54.1396 501.769 51.1096 500.819 48.1396C500.539 47.2596 500.229 46.3896 499.879 45.3696C500.829 45.3996 501.649 45.4796 502.469 45.4396C504.529 45.3396 506.029 43.7396 505.979 41.7596C505.929 39.7696 504.359 38.2696 502.289 38.2496C500.519 38.2396 498.749 38.2296 496.979 38.2496C496.449 38.2496 496.119 38.1296 495.799 37.6396C494.469 35.5996 492.959 33.6796 491.279 31.9096C488.989 29.4896 486.479 27.3196 483.789 25.3496C483.789 25.3096 483.789 25.2696 483.789 25.2296C484.009 25.0596 484.259 25.1396 484.489 25.1396C493.309 25.1396 502.129 25.1396 510.939 25.1396C515.969 25.1396 521.009 25.1496 526.039 25.1396C528.609 25.1396 530.319 22.7496 529.509 20.3696C528.939 18.7096 527.609 17.9196 525.379 17.9196C508.499 17.9196 491.619 17.9096 474.739 17.9196C468.579 17.9196 462.389 17.5496 456.249 18.0896C441.019 19.4196 429.459 26.8396 421.699 39.9596C416.569 48.6296 414.929 58.1096 416.509 68.0296C418.499 80.5896 424.909 90.4196 435.409 97.5596C442.489 102.37 450.389 104.77 458.929 104.81C474.099 104.88 489.269 104.83 504.439 104.83C511.519 104.83 518.599 104.83 525.679 104.84C527.279 104.84 528.539 104.28 529.289 102.84C530.569 100.37 528.839 97.6396 525.979 97.6296C517.979 97.6096 509.989 97.6296 501.989 97.6296C495.919 97.6296 489.849 97.5996 483.779 97.5896L483.799 97.6196ZM510.159 44.3996C511.009 45.2496 512.069 45.4896 513.229 45.4896C518.749 45.4896 524.269 45.4896 529.799 45.4896C532.819 45.4896 535.839 45.4896 538.859 45.4896C540.129 45.4896 541.279 45.1596 542.079 44.0896C542.969 42.8896 543.119 41.5596 542.449 40.2296C541.749 38.8496 540.529 38.2596 538.999 38.2596C534.419 38.2596 529.849 38.2596 525.269 38.2596C521.119 38.2596 516.969 38.2396 512.819 38.2596C511.219 38.2596 510.019 38.9596 509.399 40.4996C508.849 41.8496 509.139 43.3396 510.159 44.3796V44.3996ZM521.979 83.9696C522.399 84.4696 523.239 84.8196 524.179 84.8296C526.649 84.8496 529.119 84.8696 531.599 84.8296C533.519 84.7896 535.069 83.1796 535.099 81.3096C535.129 79.4296 533.559 77.6996 531.639 77.6596C529.139 77.5996 526.629 77.5996 524.129 77.6596C522.599 77.6996 521.469 78.5196 520.939 79.9696C520.419 81.3696 520.689 82.6596 521.979 83.9796V83.9696Z" fill="white"/>
<path d="M483.809 25.3796C486.499 27.3396 488.999 29.5096 491.299 31.9396C492.979 33.7196 494.489 35.6296 495.819 37.6696C496.139 38.1596 496.469 38.2896 496.999 38.2796C498.769 38.2596 500.539 38.2596 502.309 38.2796C504.379 38.2996 505.959 39.7996 505.999 41.7896C506.049 43.7696 504.539 45.3696 502.489 45.4696C501.669 45.5096 500.849 45.4296 499.899 45.3996C500.249 46.4196 500.559 47.2896 500.839 48.1696C501.789 51.1396 502.439 54.1696 502.679 57.2796C502.739 57.9996 503.149 57.8296 503.539 57.8296C517.149 57.8296 530.759 57.8296 544.369 57.8296C551.359 57.8296 558.349 57.8296 565.339 57.8296C567.739 57.8296 569.379 59.2896 569.379 61.4496C569.379 63.4996 567.669 65.0396 565.389 65.0496C547.479 65.0496 529.559 65.0496 511.649 65.0496C508.929 65.0496 506.219 65.0596 503.499 65.0296C502.939 65.0296 502.729 65.1496 502.669 65.7596C502.309 69.8196 501.299 73.7196 499.819 77.5096C500.089 77.7796 500.409 77.6496 500.699 77.6496C504.999 77.6496 509.309 77.6496 513.609 77.6596C516.519 77.6696 518.239 80.5396 516.829 83.0296C516.119 84.2996 514.969 84.8596 513.499 84.8596C508.429 84.8496 503.369 84.8596 498.299 84.8596C495.969 84.8596 496.019 84.8696 494.709 86.7496C492.209 90.3196 489.179 93.3896 485.699 96.0196C485.069 96.4896 484.419 96.9396 483.789 97.3996C483.739 97.4596 483.689 97.5096 483.639 97.5696C483.699 97.5996 483.759 97.6196 483.819 97.6496C489.889 97.6596 495.959 97.6796 502.029 97.6896C510.029 97.6896 518.019 97.6896 526.019 97.6896C528.869 97.6896 530.609 100.43 529.329 102.9C528.579 104.34 527.319 104.9 525.719 104.9C518.639 104.88 511.559 104.89 504.479 104.89C489.309 104.89 474.139 104.94 458.969 104.87C450.429 104.83 442.529 102.43 435.449 97.6196C424.949 90.4896 418.539 80.6496 416.549 68.0896C414.979 58.1596 416.619 48.6796 421.739 40.0196C429.499 26.8996 441.059 19.4796 456.289 18.1496C462.429 17.6196 468.609 17.9896 474.779 17.9796C491.659 17.9596 508.539 17.9796 525.419 17.9796C527.649 17.9796 528.979 18.7696 529.549 20.4296C530.359 22.8096 528.649 25.1896 526.079 25.1996C521.049 25.2196 516.009 25.1996 510.979 25.1996C502.159 25.1996 493.339 25.1996 484.529 25.1996C484.299 25.1996 484.039 25.1096 483.829 25.2896C483.769 25.2496 483.709 25.1696 483.659 25.2896C483.659 25.3096 483.769 25.3696 483.829 25.4096L483.809 25.3796ZM437.239 83.6496C449.699 96.0196 469.709 95.8296 481.899 83.3796C493.719 71.3196 494.159 51.3496 481.299 38.8496C469.069 26.9596 449.089 26.8296 436.719 39.7596C424.999 52.0096 425.089 71.4096 437.239 83.6496Z" fill="#262262"/>
<path d="M510.169 44.3994C509.149 43.3594 508.859 41.8694 509.409 40.5194C510.029 38.9694 511.239 38.2894 512.829 38.2794C516.979 38.2594 521.129 38.2794 525.279 38.2794C529.859 38.2794 534.429 38.2794 539.009 38.2794C540.539 38.2794 541.759 38.8694 542.459 40.2494C543.129 41.5794 542.979 42.9094 542.089 44.1094C541.299 45.1794 540.149 45.5094 538.869 45.5094C535.849 45.5094 532.829 45.5094 529.809 45.5094C524.289 45.5094 518.769 45.5094 513.239 45.5094C512.079 45.5094 511.019 45.2694 510.169 44.4194V44.3994Z" fill="#262262"/>
<path d="M521.99 83.9692C520.71 82.6492 520.43 81.3592 520.95 79.9592C521.49 78.5192 522.62 77.6992 524.14 77.6492C526.64 77.5792 529.15 77.5792 531.65 77.6492C533.57 77.6892 535.14 79.4192 535.11 81.2992C535.08 83.1692 533.53 84.7792 531.61 84.8192C529.14 84.8692 526.67 84.8492 524.19 84.8192C523.24 84.8192 522.41 84.4592 521.99 83.9592V83.9692Z" fill="#262262"/>
<path d="M483.799 97.6191C483.739 97.5891 483.679 97.5691 483.619 97.5391C483.669 97.4791 483.719 97.4291 483.769 97.3691C483.779 97.4491 483.789 97.5291 483.799 97.6191Z" fill="white"/>
<path d="M483.809 25.3797C483.749 25.3397 483.629 25.2797 483.639 25.2597C483.679 25.1397 483.749 25.2197 483.809 25.2597C483.809 25.2997 483.809 25.3397 483.809 25.3797Z" fill="white"/>
<path d="M263.17 19.1797C276.5 19.1797 285.64 25.4697 290.59 32.3597V20.5297H311.71V103.53H290.59V91.3997C285.65 98.5897 276.21 104.88 263.02 104.88C242.05 104.88 225.27 87.6497 225.27 61.7297C225.27 35.8097 242.05 19.1797 263.17 19.1797ZM268.56 37.6097C257.32 37.6097 246.69 45.9997 246.69 61.7297C246.69 77.4597 257.33 86.4497 268.56 86.4497C279.79 86.4497 290.58 77.7597 290.58 62.0297C290.58 46.2997 280.09 37.6097 268.56 37.6097Z" fill="#262262"/>
<path d="M365.64 19.1799C386.91 19.1799 403.54 35.8099 403.54 61.7299C403.54 87.6499 386.91 104.88 365.64 104.88C352.61 104.88 343.32 98.4399 338.22 91.6999V143.08H317.25V20.5199H338.22V32.4999C343.16 25.4599 352.75 19.1699 365.64 19.1699V19.1799ZM360.1 37.6099C348.86 37.6099 338.23 46.2999 338.23 62.0299C338.23 77.7599 348.87 86.4499 360.1 86.4499C371.33 86.4499 382.12 77.4599 382.12 61.7299C382.12 45.9999 371.48 37.6099 360.1 37.6099Z" fill="#262262"/>
<path d="M9.89 37.75H0V20.52H9.89V0H31.01V20.52H49.59V37.75H31.01V77.9C31.01 83.44 33.26 85.84 39.85 85.84H49.59V103.52H36.41C20.53 103.52 9.89 96.78 9.89 77.75V37.75Z" fill="#27AAE1"/>
<path d="M106.81 20.5195H129.13L77.7404 142.77H55.4204L73.4004 101.42L40.1504 20.5195H63.6704L85.0904 78.4995L106.81 20.5195Z" fill="#27AAE1"/>
<path d="M146.361 103.52H125.391V20.5203H146.361V33.4003C151.601 24.8603 160.291 19.3203 171.831 19.3203V41.3403H166.291C153.861 41.3403 146.371 46.1303 146.371 62.1603V103.51L146.361 103.52Z" fill="#27AAE1"/>
<path d="M207.189 104.87C183.069 104.87 165.539 88.0899 165.539 62.0199C165.539 35.9499 182.619 19.1699 207.189 19.1699C231.759 19.1699 248.089 35.4999 248.089 60.2199C248.089 62.9199 247.939 65.6099 247.489 68.3099H186.819C187.869 80.5899 196.259 87.4899 206.739 87.4899C215.729 87.4899 220.669 82.9999 223.369 77.4499H245.989C241.499 92.7299 227.709 104.87 207.189 104.87ZM186.969 54.2299H226.369C226.069 43.2899 217.379 36.3999 206.589 36.3999C196.549 36.3999 188.609 42.8399 186.969 54.2299Z" fill="#27AAE1"/>
<path d="M407.891 20.6201H428.861V142.77H407.891V20.6201Z" fill="#262262"/>
</g>
<defs>
<clipPath id="clip0_1467_975">
<rect width="569.37" height="143.07" fill="white"/>
</clipPath>
</defs>
</svg>
