<svg width="287" height="72" viewBox="0 0 287 72" fill="none" xmlns="http://www.w3.org/2000/svg">
<g clip-path="url(#clip0_2097_1929)">
<path d="M243.478 12.7709C244.832 13.7573 246.09 14.8493 247.248 16.0722C248.093 16.968 248.853 17.9292 249.522 18.9558C249.683 19.2024 249.849 19.2678 250.116 19.2628C251.007 19.2527 251.898 19.2527 252.788 19.2628C253.83 19.2729 254.625 20.0278 254.645 21.0292C254.671 22.0257 253.911 22.8309 252.879 22.8812C252.466 22.9013 252.054 22.8611 251.576 22.846C251.752 23.3593 251.908 23.7971 252.049 24.24C252.527 25.7346 252.854 27.2595 252.975 28.8246C253.005 29.1869 253.211 29.1014 253.407 29.1014C260.257 29.1014 267.106 29.1014 273.955 29.1014C277.473 29.1014 280.991 29.1014 284.508 29.1014C285.716 29.1014 286.541 29.8361 286.541 30.9231C286.541 31.9548 285.681 32.7298 284.533 32.7348C275.52 32.7348 266.502 32.7348 257.489 32.7348C256.12 32.7348 254.756 32.7399 253.387 32.7248C253.105 32.7248 253 32.7851 252.97 33.0921C252.788 35.1353 252.28 37.098 251.535 39.0053C251.671 39.1412 251.832 39.0758 251.978 39.0758C254.142 39.0758 256.311 39.0758 258.475 39.0808C259.94 39.0858 260.805 40.5302 260.096 41.7833C259.738 42.4224 259.16 42.7042 258.42 42.7042C255.868 42.6992 253.322 42.7042 250.77 42.7042C249.598 42.7042 249.623 42.7092 248.964 43.6553C247.706 45.452 246.181 46.9969 244.429 48.3205C244.112 48.557 243.785 48.7835 243.468 49.015C243.443 49.0452 243.418 49.0703 243.393 49.1005C243.423 49.1156 243.453 49.1257 243.483 49.1408C246.538 49.1458 249.593 49.1559 252.647 49.1609C256.673 49.1609 260.694 49.1609 264.72 49.1609C266.155 49.1609 267.03 50.5398 266.386 51.7828C266.009 52.5075 265.375 52.7893 264.569 52.7893C261.006 52.7793 257.443 52.7843 253.88 52.7843C246.246 52.7843 238.612 52.8095 230.978 52.7742C226.68 52.7541 222.704 51.5463 219.141 49.1257C213.857 45.5375 210.631 40.5855 209.63 34.2647C208.84 29.2674 209.665 24.4966 212.242 20.1385C216.147 13.5358 221.964 9.80171 229.629 9.13239C232.719 8.86567 235.829 9.05187 238.934 9.04684C247.429 9.03677 255.924 9.04684 264.419 9.04684C265.541 9.04684 266.21 9.4444 266.497 10.2798C266.905 11.4775 266.044 12.6753 264.751 12.6803C262.219 12.6904 259.683 12.6803 257.152 12.6803C252.713 12.6803 248.274 12.6803 243.841 12.6803C243.725 12.6803 243.594 12.635 243.488 12.7256C243.458 12.7055 243.428 12.6652 243.403 12.7256C243.403 12.7357 243.458 12.7659 243.488 12.786L243.478 12.7709ZM220.042 42.0953C226.312 48.3205 236.382 48.2249 242.517 41.9594C248.465 35.8902 248.687 25.8403 242.215 19.5497C236.06 13.566 226.005 13.5006 219.78 20.0076C213.882 26.1724 213.927 35.9355 220.042 42.0953Z" fill="#262262"/>
<path d="M256.744 22.3422C256.231 21.8188 256.085 21.069 256.362 20.3896C256.674 19.6095 257.283 19.2673 258.083 19.2623C260.171 19.2522 262.26 19.2623 264.348 19.2623C266.653 19.2623 268.953 19.2623 271.258 19.2623C272.028 19.2623 272.642 19.5592 272.994 20.2537C273.331 20.923 273.256 21.5923 272.808 22.1962C272.41 22.7347 271.831 22.9008 271.187 22.9008C269.667 22.9008 268.148 22.9008 266.628 22.9008C263.85 22.9008 261.072 22.9008 258.289 22.9008C257.705 22.9008 257.172 22.78 256.744 22.3522V22.3422Z" fill="#262262"/>
<path d="M262.693 42.2558C262.048 41.5915 261.908 40.9423 262.169 40.2378C262.441 39.5131 263.01 39.1004 263.775 39.0752C265.033 39.04 266.296 39.04 267.554 39.0752C268.52 39.0954 269.31 39.966 269.295 40.9121C269.28 41.8532 268.5 42.6634 267.534 42.6836C266.291 42.7087 265.048 42.6986 263.8 42.6836C263.322 42.6836 262.904 42.5024 262.693 42.2508V42.2558Z" fill="#262262"/>
<path d="M243.473 49.1258C243.443 49.1107 243.413 49.1006 243.383 49.0856C243.408 49.0554 243.433 49.0302 243.458 49C243.463 49.0403 243.468 49.0805 243.473 49.1258Z" fill="white"/>
<path d="M243.478 12.77C243.448 12.7499 243.388 12.7197 243.393 12.7096C243.413 12.6492 243.448 12.6895 243.478 12.7096C243.478 12.7298 243.478 12.7499 243.478 12.77Z" fill="white"/>
<path d="M239.834 39.55C235.078 44.3208 227.374 44.3208 222.598 39.55C217.812 34.7742 217.802 27.0593 222.578 22.2684C227.374 17.4573 235.088 17.5026 239.955 22.369C244.64 27.0493 244.585 34.7792 239.834 39.545V39.55ZM224.721 26.9486C224.938 27.165 225.154 27.3865 225.376 27.5978C226.136 28.3477 227.212 28.393 227.937 27.7035C228.652 27.0241 228.687 25.8968 227.982 25.1319C227.504 24.6135 227.001 24.1153 226.478 23.6372C225.758 22.978 224.641 23.0384 223.982 23.7329C223.317 24.4324 223.327 25.5295 224.007 26.229C224.243 26.4705 224.485 26.7071 224.721 26.9486ZM235.169 24.4223C234.932 24.6639 234.686 24.8954 234.454 25.142C233.76 25.8666 233.765 26.9839 234.459 27.6632C235.159 28.3527 236.266 28.3628 236.986 27.6683C237.459 27.2103 237.927 26.7473 238.385 26.2743C239.109 25.5295 239.124 24.4022 238.435 23.7127C237.705 22.983 236.613 22.9931 235.848 23.7379C235.617 23.9643 235.395 24.1908 235.164 24.4173L235.169 24.4223ZM224.711 34.8798C224.46 35.1365 224.203 35.3781 223.961 35.6347C223.332 36.3141 223.337 37.3911 223.961 38.0654C224.586 38.7398 225.693 38.8555 226.387 38.2567C227.001 37.7232 227.58 37.1445 228.103 36.5255C228.722 35.7958 228.591 34.7188 227.882 34.0746C227.207 33.4657 226.141 33.4858 225.451 34.135C225.194 34.3766 224.953 34.6333 224.701 34.8849L224.711 34.8798ZM235.159 37.381C235.42 37.6427 235.672 37.9094 235.944 38.161C236.598 38.775 237.635 38.8002 238.299 38.2214C239.004 37.6075 239.18 36.5959 238.636 35.8612C238.103 35.1466 237.469 34.5125 236.764 33.969C235.994 33.3802 234.952 33.5563 234.333 34.3112C233.76 35.0057 233.825 36.0273 234.479 36.6966C234.706 36.9281 234.937 37.1545 235.164 37.381H235.159ZM232.3 35.8411C231.938 35.5139 231.319 35.3579 230.64 35.5945C229.945 35.836 229.502 36.3342 229.452 37.0791C229.402 37.8239 229.417 38.5787 229.432 39.3286C229.452 40.3149 230.227 41.0799 231.188 41.09C232.2 41.1 232.965 40.3753 233 39.3487C233.02 38.6442 233.01 37.9396 233.005 37.2351C233.005 36.7519 232.819 36.3393 232.305 35.8461L232.3 35.8411ZM226.085 32.1925C226.624 31.649 226.775 30.9092 226.478 30.2147C226.176 29.5102 225.632 29.1428 224.862 29.1277C224.188 29.1126 223.509 29.1176 222.834 29.1277C221.818 29.1378 221.058 29.8876 221.033 30.8941C221.002 31.8654 221.772 32.6655 222.794 32.7008C223.483 32.7209 224.178 32.7159 224.867 32.7008C225.345 32.6907 225.773 32.5397 226.085 32.1975V32.1925ZM241.017 29.792C240.569 29.329 240.161 29.1327 239.678 29.1277C238.958 29.1176 238.234 29.1076 237.514 29.1277C236.583 29.1579 235.863 29.8876 235.813 30.8035C235.763 31.7446 236.412 32.58 237.353 32.6706C238.209 32.7511 239.074 32.7662 239.93 32.6605C240.624 32.5699 241.097 32.1371 241.314 31.4678C241.53 30.7985 241.369 30.1996 241.017 29.792ZM232.492 21.2619C231.928 20.6731 231.249 20.5875 230.539 20.8593C229.85 21.126 229.467 21.6796 229.437 22.4194C229.407 23.1541 229.407 23.8939 229.437 24.6286C229.477 25.5898 230.277 26.3196 231.223 26.3095C232.195 26.2994 232.965 25.5798 232.995 24.6135C233.02 23.8939 233 23.1692 232.995 22.4496C232.995 21.9815 232.809 21.584 232.482 21.2619H232.492Z" fill="#262262"/>
<path d="M132.44 9.65039C139.149 9.65039 143.748 12.8158 146.239 16.2832V10.3298H156.868V52.0995H146.239V45.9951C143.753 49.6135 139.003 52.7789 132.365 52.7789C121.812 52.7789 113.367 44.1079 113.367 31.0637C113.367 18.0194 121.812 9.65039 132.44 9.65039ZM135.153 18.9253C129.496 18.9253 124.147 23.1476 124.147 31.0637C124.147 38.9798 129.501 43.504 135.153 43.504C140.804 43.504 146.234 39.1308 146.234 31.2147C146.234 23.2985 140.955 18.9253 135.153 18.9253Z" fill="#262262"/>
<path d="M184.009 9.65152C194.713 9.65152 203.082 18.0206 203.082 31.0648C203.082 44.1091 194.713 52.7801 184.009 52.7801C177.451 52.7801 172.776 49.5391 170.209 46.1472V72.0042H159.656V10.3259H170.209V16.3548C172.695 12.8119 177.522 9.64648 184.009 9.64648V9.65152ZM181.221 18.9264C175.564 18.9264 170.214 23.2997 170.214 31.2158C170.214 39.1319 175.569 43.5052 181.221 43.5052C186.872 43.5052 192.302 38.9809 192.302 31.0648C192.302 23.1487 186.948 18.9264 181.221 18.9264Z" fill="#262262"/>
<path d="M4.97812 18.9977H0.000976562V10.3267H4.97812V0H15.6068V10.3267H24.9571V18.9977H15.6068V39.2032C15.6068 41.9912 16.7391 43.199 20.0555 43.199H24.9571V52.0965H18.3243C10.3327 52.0965 4.97812 48.7045 4.97812 39.1277V18.9977Z" fill="#27AAE1"/>
<path d="M53.7527 10.3262H64.9853L39.1232 71.8485H27.8907L36.9391 51.0391L20.2061 10.3262H32.0425L42.8221 39.5046L53.7527 10.3262Z" fill="#27AAE1"/>
<path d="M73.6567 52.0963H63.1035V10.3266H73.6567V16.8084C76.2937 12.5107 80.6669 9.72266 86.4745 9.72266V20.8042H83.6864C77.431 20.8042 73.6617 23.2148 73.6617 31.2819V52.0913L73.6567 52.0963Z" fill="#27AAE1"/>
<path d="M104.27 52.775C92.1315 52.775 83.3096 44.3305 83.3096 31.2108C83.3096 18.091 91.9051 9.64648 104.27 9.64648C116.635 9.64648 124.853 17.8646 124.853 30.3049C124.853 31.6637 124.777 33.0174 124.551 34.3762H94.0187C94.5472 40.5561 98.7694 44.0285 104.043 44.0285C108.568 44.0285 111.054 41.7689 112.413 38.9759H123.796C121.536 46.6656 114.597 52.775 104.27 52.775ZM94.0942 27.2904H113.922C113.771 21.7849 109.398 18.3175 103.968 18.3175C98.9154 18.3175 94.9196 21.5584 94.0942 27.2904Z" fill="#27AAE1"/>
<path d="M205.271 10.377H215.824V71.849H205.271V10.377Z" fill="#262262"/>
</g>
<defs>
<clipPath id="clip0_2097_1929">
<rect width="286.536" height="72" fill="white"/>
</clipPath>
</defs>
</svg>
