<svg width="44" height="44" viewBox="0 0 44 44" fill="none" xmlns="http://www.w3.org/2000/svg">
<path d="M21.6667 7C19.7217 7 17.8565 7.77262 16.4812 9.14788C15.1059 10.5232 14.3333 12.3884 14.3333 14.3333C14.3333 16.2783 15.1059 18.1435 16.4812 19.5188C17.8565 20.8941 19.7217 21.6667 21.6667 21.6667C23.6116 21.6667 25.4769 20.8941 26.8521 19.5188C28.2274 18.1435 29 16.2783 29 14.3333C29 12.3884 28.2274 10.5232 26.8521 9.14788C25.4769 7.77262 23.6116 7 21.6667 7ZM21.6667 25.3333C13.5633 25.3333 7 28.615 7 32.6667V36.3333H24.4167C23.8115 34.881 23.5 33.3233 23.5 31.75C23.5079 29.5762 24.1101 27.446 25.2417 25.59C24.0867 25.4433 22.9133 25.3333 21.6667 25.3333Z" fill="#272262"/>
<path d="M34.8895 28.7216L34.0279 29.5832L34.9934 30.5549H30.0007V31.7771H34.9934L34.0279 32.7427L34.8895 33.6105L37.334 31.166L34.8895 28.7216ZM27.5562 26.8882H31.834V25.666H27.5562C26.884 25.666 26.334 26.216 26.334 26.8882V35.4438C26.334 36.116 26.884 36.666 27.5562 36.666H31.834V35.4438H27.5562V26.8882Z" fill="#262163"/>
</svg>
