<svg width="20" height="20" viewBox="0 0 20 20" fill="none" xmlns="http://www.w3.org/2000/svg">
<path fill-rule="evenodd" clip-rule="evenodd" d="M17.7456 0.0500445C17.7015 0.0779886 17.2303 0.539548 16.6984 1.07571L15.7312 2.05057L16.8113 3.13668L17.8913 4.2228L17.6453 4.47108L17.3993 4.71933L16.3132 3.62806L15.2271 2.53677L12.8707 4.88699C11.5746 6.17964 8.74565 9.00877 6.58418 11.174L2.65422 15.1108L3.76537 16.2336L4.87653 17.3563L5.82734 16.4079C6.89994 15.3379 11.0242 11.2154 14.7169 7.52194C16.0745 6.16413 17.2363 5.00564 17.2988 4.94747L17.4124 4.84175L17.9164 5.36127L18.4204 5.88081L16.0916 8.2095C14.7741 9.52694 13.7483 10.5734 13.7294 10.6192C13.6861 10.7243 13.7092 10.9267 13.7749 11.0174C13.8031 11.0563 13.8794 11.116 13.9446 11.15C14.0781 11.2197 14.2221 11.2139 14.3466 11.1338C14.4569 11.0627 19.3588 6.14863 19.4016 6.06609C19.4483 5.97622 19.4499 5.77281 19.4047 5.69094C19.3863 5.65768 19.0629 5.31932 18.686 4.93902L18.0008 4.24758L18.9632 3.28316C19.498 2.74724 19.9423 2.28039 19.963 2.23244C20.0232 2.09342 20.0099 1.95512 19.9234 1.82117C19.8183 1.65838 18.2178 0.0627829 18.1241 0.0273835C18.0073 -0.0167316 17.8344 -0.00637998 17.7456 0.0500445ZM1.11459 17.8529C0.497656 19.0292 -0.00389972 19.9951 2.28526e-05 19.9994C0.00397211 20.0037 0.0477341 19.9839 0.0972866 19.9555C0.146839 19.9271 1.10598 19.4241 2.22871 18.8376C3.35145 18.2513 4.27552 17.7667 4.28222 17.7609C4.29588 17.7489 2.27818 15.7142 2.25267 15.7142C2.24368 15.7142 1.73156 16.6766 1.11459 17.8529Z" fill="#979797"/>
</svg>
