<svg width="44" height="44" viewBox="0 0 44 44" fill="none" xmlns="http://www.w3.org/2000/svg">
<path d="M22.3333 3.66699C32.4588 3.66699 40.6667 11.8767 40.6667 22.0003C40.6667 32.124 32.4588 40.3337 22.3333 40.3337C12.2078 40.3337 4 32.124 4 22.0003C4 11.8767 12.2078 3.66699 22.3333 3.66699ZM22.3333 6.72316C13.9092 6.72316 7.05617 13.5762 7.05617 22.0003C7.05617 30.4245 13.9092 37.2775 22.3333 37.2775C30.7575 37.2775 37.6105 30.4245 37.6105 22.0003C37.6105 13.5762 30.7575 6.72316 22.3333 6.72316ZM22.3333 28.417C22.8196 28.417 23.2859 28.6101 23.6297 28.954C23.9735 29.2978 24.1667 29.7641 24.1667 30.2503C24.1667 30.7366 23.9735 31.2029 23.6297 31.5467C23.2859 31.8905 22.8196 32.0837 22.3333 32.0837C21.8471 32.0837 21.3808 31.8905 21.037 31.5467C20.6932 31.2029 20.5 30.7366 20.5 30.2503C20.5 29.7641 20.6932 29.2978 21.037 28.954C21.3808 28.6101 21.8471 28.417 22.3333 28.417ZM22.3333 12.3753C23.6705 12.3753 24.9528 12.9065 25.8983 13.852C26.8438 14.7975 27.375 16.0799 27.375 17.417C27.375 19.2687 26.8305 20.3027 25.4482 21.7418L25.1383 22.0553C23.998 23.1957 23.7083 23.6797 23.7083 24.7503C23.7083 25.115 23.5635 25.4647 23.3056 25.7226C23.0477 25.9805 22.698 26.1253 22.3333 26.1253C21.9687 26.1253 21.6189 25.9805 21.3611 25.7226C21.1032 25.4647 20.9583 25.115 20.9583 24.7503C20.9583 22.8987 21.5028 21.8647 22.8852 20.4255L23.195 20.112C24.3353 18.9717 24.625 18.4877 24.625 17.417C24.6231 16.8308 24.3967 16.2677 23.9923 15.8434C23.5879 15.419 23.0362 15.1658 22.4509 15.1357C21.8655 15.1057 21.2908 15.3011 20.8451 15.6818C20.3993 16.0624 20.1164 16.5994 20.0545 17.1823L20.0417 17.417C20.0417 17.7817 19.8968 18.1314 19.6389 18.3893C19.3811 18.6471 19.0313 18.792 18.6667 18.792C18.302 18.792 17.9523 18.6471 17.6944 18.3893C17.4365 18.1314 17.2917 17.7817 17.2917 17.417C17.2917 16.0799 17.8228 14.7975 18.7683 13.852C19.7138 12.9065 20.9962 12.3753 22.3333 12.3753Z" fill="#272262"/>
</svg>
