<svg width="84" height="84" viewBox="0 0 84 84" fill="none" xmlns="http://www.w3.org/2000/svg">
<circle cx="42" cy="42" r="41" transform="matrix(-1 0 0 1 84 0)" fill="white" stroke="#272262" stroke-width="2"/>
<g filter="url(#filter0_d_1660_1618)">
<path d="M52.9114 14.2891C51.364 15.1018 50.0614 16.2039 49.0483 17.551C46.9554 20.3119 46.1872 23.7074 46.8886 27.0473L47.0556 27.8154L43.5153 31.3557L39.9751 34.8959L34.2194 29.1402L28.4526 23.3734V21.4141C28.4526 19.6551 28.4304 19.4213 28.2411 19.1875C28.1187 19.0316 26.3374 18.0742 23.9216 16.8719C20.6151 15.2242 19.7579 14.8457 19.5353 14.9125C19.179 15.0238 15.1489 19.0316 14.9708 19.4547C14.8372 19.7664 14.9374 19.9891 16.8857 23.8967C18.088 26.3125 19.0454 28.1049 19.2013 28.2273C19.4351 28.4166 19.6689 28.4389 21.4278 28.4389H23.3872L29.154 34.2057L34.9097 39.9613L31.3694 43.5016L27.8292 47.0418L27.0388 46.8748C24.4114 46.3182 21.7507 46.6855 19.3349 47.9213C13.145 51.1053 11.1189 58.8426 14.9263 64.7541C15.6165 65.8117 17.1417 67.3258 18.2661 68.0494C19.2458 68.6951 19.7023 68.7842 20.0585 68.3945C20.2589 68.1719 20.27 67.8824 20.3257 63.4627L20.3814 58.7758L20.7376 58.041C22.5077 54.4563 27.6956 55.2355 28.3413 59.1766C28.397 59.5773 28.4526 61.7705 28.4526 64.1975V68.5059L28.7532 68.7397C29.1651 69.0625 29.5103 68.9846 30.6124 68.3166C34.9097 65.7227 37.0917 60.7686 36.0675 55.8813L35.9005 55.1131L37.1474 53.8662L38.3831 52.6193L38.795 52.7307C39.2849 52.8643 40.2868 52.7752 40.8323 52.5525C41.0439 52.4635 41.4446 52.2186 41.723 52.007L42.2128 51.6285L42.4577 52.4189C42.9587 54.0109 43.3372 54.4785 47.2671 58.4307C50.4956 61.6703 50.9521 62.0934 51.2638 62.0934C51.7425 62.0934 52.0542 61.7816 52.0542 61.2918C52.0542 60.9244 51.8204 60.6684 48.4472 57.2729C45.1296 53.933 44.8179 53.5879 44.4394 52.8197C44.2056 52.3521 43.9495 51.5729 43.8493 51.0607L43.6712 50.1256L46.9108 46.8971L50.1394 43.6574L51.0745 43.8356C51.5866 43.9357 52.3659 44.2029 52.8335 44.4256C53.6239 44.8152 53.9468 45.1158 59.4687 50.6377C65.6696 56.8498 65.6919 56.8721 66.1372 58.4418C66.3933 59.3102 66.3933 60.9022 66.1483 61.7816C65.4581 64.1975 63.3651 65.9787 60.8603 66.2793C59.4687 66.4463 58.0882 66.1568 56.8747 65.4443C56.5853 65.2773 55.8171 64.6205 55.1603 63.9859C53.8466 62.7279 53.546 62.5943 53.0784 63.0953C52.5886 63.6186 52.7222 63.908 54.0358 65.1994C55.394 66.5354 56.1733 67.0697 57.4091 67.5262C60.3148 68.5838 63.4653 67.8936 65.703 65.6781C66.4378 64.9434 66.6939 64.5982 67.1169 63.7299C67.796 62.3494 68.0075 61.5033 68.0075 60.1117C68.0075 58.375 67.629 57.1281 66.6939 55.7254C65.9925 54.6678 54.9042 43.6574 54.0247 43.1453C53.6685 42.9338 52.9894 42.6332 52.5107 42.4773L51.6423 42.1879L51.954 41.7982C52.6442 40.9744 52.9894 39.6607 52.7444 38.7813L52.6331 38.3693L53.88 37.1336L55.1269 35.8867L55.895 36.0537C58.5446 36.6104 61.2054 36.243 63.6212 35.0072C69.811 31.8232 71.8372 24.0859 68.0298 18.1744C67.3284 17.0945 65.7921 15.5805 64.6899 14.868C63.6991 14.2334 63.2427 14.1555 62.8976 14.534C62.6972 14.7566 62.686 15.0461 62.6304 19.4658L62.5747 24.1527L62.2741 24.7873C60.8046 27.9268 56.5296 28.0047 54.971 24.9209C54.6815 24.342 54.5034 23.3066 54.5034 22.1377C54.5034 21.3807 54.47 21.2025 54.2808 21.0355C53.969 20.7572 53.4347 20.7795 53.1341 21.0801C52.9114 21.3027 52.8892 21.4252 52.9003 22.6832C52.9003 24.3197 53.1564 25.2772 53.8466 26.3014C56.4628 30.2313 62.3298 29.4854 63.9886 25.0322C64.2224 24.4088 64.2335 24.1527 64.278 20.5012L64.3114 16.627L64.7679 16.9943C66.1038 18.052 67.4843 20.2563 67.9964 22.1488C68.3415 23.4291 68.3304 25.8895 67.9853 27.1586C67.1614 30.1867 64.9237 32.7361 62.0737 33.9051C60.2146 34.6621 57.8099 34.8402 55.9841 34.3615C55.4831 34.2279 54.9599 34.1166 54.8263 34.1166C54.6593 34.1166 54.1138 34.5842 53.1675 35.5082L51.7536 36.9109L51.197 36.5324C50.1728 35.8422 48.8257 35.7754 47.6567 36.3543C47.3896 36.4879 46.5657 37.2115 45.8087 37.9686L44.4282 39.349L42.7917 37.7125L41.144 36.0648L44.9849 32.224C47.5454 29.6635 48.8257 28.2941 48.8257 28.1494C48.8257 28.0158 48.7255 27.526 48.5919 27.0361C48.2802 25.8449 48.2468 23.7297 48.5251 22.5162C49.0595 20.2229 50.273 18.2635 52.0542 16.8496L52.7778 16.2707L52.8335 17.4508C52.878 18.475 52.9226 18.6643 53.1341 18.8758C53.4347 19.1764 53.969 19.1986 54.2808 18.9203C54.4923 18.7311 54.5034 18.5863 54.5034 16.5713V14.4227L54.214 14.2C53.8243 13.8883 53.6351 13.9105 52.9114 14.2891ZM26.7716 22.1043L26.7382 23.9969L34.9987 32.2574L43.2593 40.518L41.9011 41.8873L40.5317 43.2455L32.2712 34.985L24.0107 26.7244L22.1181 26.7578L20.2255 26.7912L18.4999 23.34L16.7855 19.9L18.344 18.3303L19.9138 16.7717L23.3538 18.4861L26.805 20.2117L26.7716 22.1043ZM50.1728 37.8461C50.6069 38.0799 51.03 38.6254 51.119 39.0707C51.2304 39.683 51.0745 40.184 50.6181 40.7629C50.3843 41.0523 48.0353 43.4348 45.419 46.051C40.5763 50.8604 40.2534 51.1498 39.4741 51.1498C38.3052 51.1498 37.3923 49.9363 37.6929 48.7785C37.8042 48.3666 38.4276 47.6986 43.0255 43.1008C47.0444 39.0707 48.3247 37.8572 48.6587 37.7348C49.1374 37.5566 49.694 37.6012 50.1728 37.8461ZM37.9155 45.8617C36.4683 47.3313 36.2456 47.6541 36.023 48.6672C35.8448 49.4354 36.0564 50.4596 36.5462 51.1832L36.9247 51.7398L35.522 53.1537C34.6759 54.0109 34.1304 54.6566 34.1304 54.7902C34.1304 54.9127 34.2306 55.4025 34.3642 55.8924C34.687 57.0836 34.7093 59.1988 34.431 60.4234C33.8966 62.6945 32.6608 64.6762 30.9019 66.0789L30.1782 66.6578L30.1114 62.7168C30.0558 59.0764 30.0335 58.7201 29.8108 58.041C28.987 55.5473 26.5601 53.8885 23.9995 54.0889C22.4855 54.2002 21.272 54.768 20.2478 55.859C19.5909 56.5604 19.2792 57.0502 18.9675 57.8963C18.7337 58.5197 18.7226 58.7758 18.678 62.4273L18.6446 66.3016L18.1882 65.9342C16.8857 64.91 15.6054 62.9061 15.0265 60.9912C14.7482 60.1006 14.7259 59.8334 14.7259 58.3305C14.7259 56.9611 14.7704 56.4936 14.9708 55.7699C15.9616 52.0961 18.7894 49.3797 22.53 48.5113C23.7769 48.2219 25.7585 48.2553 27.0388 48.5781C27.5843 48.7229 28.1298 48.8008 28.2634 48.7674C28.397 48.734 30.2116 46.9973 32.2935 44.9154L36.0786 41.1303L37.7151 42.7668L39.3628 44.4033L37.9155 45.8617Z" fill="#272262"/>
</g>
<defs>
<filter id="filter0_d_1660_1618" x="10" y="13.9844" width="62.957" height="60.9395" filterUnits="userSpaceOnUse" color-interpolation-filters="sRGB">
<feFlood flood-opacity="0" result="BackgroundImageFix"/>
<feColorMatrix in="SourceAlpha" type="matrix" values="0 0 0 0 0 0 0 0 0 0 0 0 0 0 0 0 0 0 127 0" result="hardAlpha"/>
<feOffset dy="3"/>
<feGaussianBlur stdDeviation="1.5"/>
<feComposite in2="hardAlpha" operator="out"/>
<feColorMatrix type="matrix" values="0 0 0 0 0 0 0 0 0 0 0 0 0 0 0 0 0 0 0.18 0"/>
<feBlend mode="normal" in2="BackgroundImageFix" result="effect1_dropShadow_1660_1618"/>
<feBlend mode="normal" in="SourceGraphic" in2="effect1_dropShadow_1660_1618" result="shape"/>
</filter>
</defs>
</svg>
