<svg width="49" height="49" viewBox="0 0 49 49" fill="none" xmlns="http://www.w3.org/2000/svg">
<path d="M41.395 41.4517C31.945 50.9317 16.635 50.9317 7.14502 41.4517C-2.36498 31.9617 -2.38499 16.6317 7.10501 7.11166C16.635 -2.44834 31.965 -2.35834 41.635 7.31166C50.945 16.6117 50.835 31.9717 41.395 41.4417V41.4517ZM11.365 16.4117C11.795 16.8417 12.225 17.2817 12.665 17.7017C14.175 19.1917 16.315 19.2817 17.755 17.9117C19.175 16.5617 19.245 14.3217 17.845 12.8017C16.895 11.7717 15.895 10.7817 14.855 9.83166C13.425 8.52166 11.205 8.64166 9.89502 10.0217C8.57502 11.4117 8.59501 13.5917 9.94501 14.9817C10.415 15.4617 10.895 15.9317 11.365 16.4117ZM32.125 11.3917C31.655 11.8717 31.165 12.3317 30.705 12.8217C29.325 14.2617 29.335 16.4817 30.715 17.8317C32.105 19.2017 34.305 19.2217 35.735 17.8417C36.675 16.9317 37.605 16.0117 38.515 15.0717C39.955 13.5917 39.985 11.3517 38.615 9.98166C37.165 8.53166 34.995 8.55166 33.475 10.0317C33.015 10.4817 32.575 10.9317 32.115 11.3817L32.125 11.3917ZM11.345 32.1717C10.845 32.6817 10.335 33.1617 9.85501 33.6717C8.60501 35.0217 8.61501 37.1617 9.85501 38.5017C11.095 39.8417 13.295 40.0717 14.675 38.8817C15.895 37.8217 17.045 36.6717 18.085 35.4417C19.315 33.9917 19.055 31.8517 17.645 30.5717C16.305 29.3617 14.185 29.4017 12.815 30.6917C12.305 31.1717 11.825 31.6817 11.325 32.1817L11.345 32.1717ZM32.105 37.1417C32.625 37.6617 33.125 38.1917 33.665 38.6917C34.965 39.9117 37.025 39.9617 38.345 38.8117C39.745 37.5917 40.095 35.5817 39.015 34.1217C37.955 32.7017 36.695 31.4417 35.295 30.3617C33.765 29.1917 31.695 29.5417 30.465 31.0417C29.325 32.4217 29.455 34.4517 30.755 35.7817C31.205 36.2417 31.665 36.6917 32.115 37.1417H32.105ZM26.425 34.0817C25.705 33.4317 24.475 33.1217 23.125 33.5917C21.745 34.0717 20.865 35.0617 20.765 36.5417C20.665 38.0217 20.695 39.5217 20.725 41.0117C20.765 42.9717 22.305 44.4917 24.215 44.5117C26.225 44.5317 27.745 43.0917 27.815 41.0517C27.855 39.6517 27.835 38.2517 27.825 36.8517C27.825 35.8917 27.455 35.0717 26.435 34.0917L26.425 34.0817ZM14.075 26.8317C15.145 25.7517 15.445 24.2817 14.855 22.9017C14.255 21.5017 13.175 20.7717 11.645 20.7417C10.305 20.7117 8.95502 20.7217 7.61502 20.7417C5.59502 20.7617 4.08501 22.2517 4.03501 24.2517C3.97501 26.1817 5.50501 27.7717 7.53501 27.8417C8.90501 27.8817 10.285 27.8717 11.655 27.8417C12.605 27.8217 13.455 27.5217 14.075 26.8417V26.8317ZM43.745 22.0617C42.855 21.1417 42.045 20.7517 41.085 20.7417C39.655 20.7217 38.215 20.7017 36.785 20.7417C34.935 20.8017 33.505 22.2517 33.405 24.0717C33.305 25.9417 34.595 27.6017 36.465 27.7817C38.165 27.9417 39.885 27.9717 41.585 27.7617C42.965 27.5817 43.905 26.7217 44.335 25.3917C44.765 24.0617 44.445 22.8717 43.745 22.0617ZM26.805 5.11166C25.685 3.94166 24.335 3.77166 22.925 4.31166C21.555 4.84166 20.795 5.94166 20.735 7.41166C20.675 8.87166 20.675 10.3417 20.735 11.8017C20.815 13.7117 22.405 15.1617 24.285 15.1417C26.215 15.1217 27.745 13.6917 27.805 11.7717C27.855 10.3417 27.815 8.90166 27.805 7.47166C27.805 6.54166 27.435 5.75166 26.785 5.11166H26.805Z" fill="#262262"/>
</svg>
