<svg width="44" height="44" viewBox="0 0 44 44" fill="none" xmlns="http://www.w3.org/2000/svg">
<rect x="0.386719" y="0.386719" width="43.2266" height="43.2266" rx="10.3741" fill="#272262" stroke="#272262" stroke-width="0.773437"/>
<path d="M32.2526 32.2875C26.5911 37.9668 17.419 37.9668 11.7337 32.2875C6.03629 26.6021 6.0243 17.418 11.7097 11.7146C17.419 5.98732 26.6031 6.04124 32.3963 11.8345C37.9739 17.406 37.908 26.6081 32.2526 32.2815V32.2875ZM14.2618 17.2862C14.5194 17.5438 14.777 17.8074 15.0406 18.059C15.9453 18.9517 17.2273 19.0056 18.09 18.1848C18.9407 17.3761 18.9827 16.0341 18.1439 15.1235C17.5748 14.5064 16.9757 13.9133 16.3526 13.3442C15.4959 12.5594 14.166 12.6312 13.3812 13.458C12.5904 14.2907 12.6023 15.5968 13.4111 16.4295C13.6927 16.7171 13.9802 16.9986 14.2618 17.2862ZM26.699 14.2788C26.4174 14.5663 26.1238 14.8419 25.8483 15.1355C25.0215 15.9981 25.0275 17.3281 25.8542 18.1369C26.687 18.9577 28.005 18.9696 28.8617 18.1429C29.4248 17.5977 29.982 17.0466 30.5272 16.4834C31.3899 15.5968 31.4078 14.2548 30.5871 13.434C29.7184 12.5653 28.4184 12.5773 27.5077 13.464C27.2322 13.7336 26.9686 14.0032 26.693 14.2728L26.699 14.2788ZM14.2498 26.7279C13.9503 27.0334 13.6447 27.321 13.3572 27.6265C12.6083 28.4353 12.6143 29.7174 13.3572 30.5201C14.1001 31.3229 15.4181 31.4607 16.2448 30.7478C16.9757 30.1128 17.6647 29.4238 18.2877 28.6869C19.0246 27.8182 18.8688 26.5362 18.0241 25.7693C17.2213 25.0444 15.9512 25.0684 15.1305 25.8412C14.825 26.1288 14.5374 26.4343 14.2379 26.7339L14.2498 26.7279ZM26.687 29.7054C26.9985 30.0169 27.2981 30.3344 27.6216 30.634C28.4004 31.3649 29.6345 31.3948 30.4253 30.7059C31.264 29.975 31.4737 28.7708 30.8267 27.8961C30.1917 27.0454 29.4368 26.2905 28.5981 25.6435C27.6815 24.9426 26.4414 25.1523 25.7045 26.0509C25.0215 26.8777 25.0994 28.0938 25.8782 28.8906C26.1478 29.1662 26.4234 29.4358 26.693 29.7054H26.687ZM23.2841 27.8721C22.8528 27.4827 22.1159 27.297 21.3071 27.5786C20.4804 27.8662 19.9532 28.4593 19.8933 29.3459C19.8334 30.2326 19.8513 31.1312 19.8693 32.0239C19.8933 33.1981 20.8159 34.1087 21.9602 34.1207C23.1643 34.1327 24.0749 33.27 24.1169 32.0478C24.1408 31.2091 24.1289 30.3704 24.1229 29.5316C24.1229 28.9565 23.9012 28.4653 23.2901 27.8781L23.2841 27.8721ZM15.8854 23.5287C16.5264 22.8817 16.7061 22.001 16.3526 21.1743C15.9932 20.3356 15.3462 19.8982 14.4296 19.8803C13.6268 19.8623 12.818 19.8683 12.0152 19.8803C10.8051 19.8922 9.90042 20.7849 9.87046 21.9831C9.83452 23.1393 10.7511 24.0919 11.9673 24.1338C12.788 24.1578 13.6148 24.1518 14.4355 24.1338C15.0047 24.1218 15.5139 23.9421 15.8854 23.5347V23.5287ZM33.6604 20.6711C33.1272 20.1199 32.642 19.8863 32.0668 19.8803C31.2101 19.8683 30.3474 19.8563 29.4907 19.8803C28.3824 19.9162 27.5257 20.7849 27.4658 21.8752C27.4059 22.9955 28.1787 23.99 29.299 24.0979C30.3175 24.1937 31.3479 24.2117 32.3664 24.0859C33.1931 23.9781 33.7563 23.4628 34.0139 22.666C34.2715 21.8692 34.0798 21.1563 33.6604 20.6711ZM23.5118 10.5165C22.8408 9.81552 22.032 9.71367 21.1873 10.0372C20.3666 10.3547 19.9113 11.0137 19.8753 11.8944C19.8394 12.769 19.8394 13.6497 19.8753 14.5244C19.9232 15.6686 20.8758 16.5373 22.0021 16.5253C23.1583 16.5134 24.0749 15.6567 24.1109 14.5064C24.1408 13.6497 24.1169 12.787 24.1109 11.9303C24.1109 11.3732 23.8892 10.8999 23.4998 10.5165H23.5118Z" fill="white"/>
</svg>
