<svg width="30" height="30" viewBox="0 0 30 30" fill="none" xmlns="http://www.w3.org/2000/svg">
<path d="M25.2526 25.2875C19.5911 30.9668 10.419 30.9668 4.73365 25.2875C-0.963714 19.6021 -0.975701 10.418 4.70968 4.71464C10.419 -1.01268 19.6031 -0.958761 25.3963 4.83446C30.9739 10.406 30.908 19.6081 25.2526 25.2815V25.2875ZM7.26182 10.2862C7.51943 10.5438 7.77703 10.8074 8.04063 11.059C8.94526 11.9517 10.2273 12.0056 11.09 11.1848C11.9407 10.3761 11.9827 9.03409 11.1439 8.12347C10.5748 7.50641 9.9757 6.91331 9.35264 6.34417C8.49594 5.55936 7.16596 5.63125 6.38115 6.458C5.59035 7.29073 5.60233 8.59676 6.4111 9.42949C6.69267 9.71706 6.98025 9.99863 7.26182 10.2862ZM19.699 7.27875C19.4174 7.56632 19.1238 7.8419 18.8483 8.13545C18.0215 8.99815 18.0275 10.3281 18.8542 11.1369C19.687 11.9577 21.005 11.9696 21.8617 11.1429C22.4248 10.5977 22.982 10.0466 23.5272 9.48341C24.3899 8.59676 24.4078 7.25479 23.5871 6.43403C22.7184 5.56535 21.4184 5.57733 20.5077 6.46399C20.2322 6.73358 19.9686 7.00317 19.693 7.27276L19.699 7.27875ZM7.24983 19.7279C6.95028 20.0334 6.64475 20.321 6.35718 20.6265C5.60832 21.4353 5.61431 22.7174 6.35718 23.5201C7.10006 24.3229 8.41807 24.4607 9.24481 23.7478C9.9757 23.1128 10.6647 22.4238 11.2877 21.6869C12.0246 20.8182 11.8688 19.5362 11.0241 18.7693C10.2213 18.0444 8.95125 18.0684 8.13049 18.8412C7.82495 19.1288 7.5374 19.4343 7.23785 19.7339L7.24983 19.7279ZM19.687 22.7054C19.9985 23.0169 20.2981 23.3344 20.6216 23.634C21.4004 24.3649 22.6345 24.3948 23.4253 23.7059C24.264 22.975 24.4737 21.7708 23.8267 20.8961C23.1917 20.0454 22.4368 19.2905 21.5981 18.6435C20.6815 17.9426 19.4414 18.1523 18.7045 19.0509C18.0215 19.8777 18.0994 21.0938 18.8782 21.8906C19.1478 22.1662 19.4234 22.4358 19.693 22.7054H19.687ZM16.2841 20.8721C15.8528 20.4827 15.1159 20.297 14.3071 20.5786C13.4804 20.8662 12.9532 21.4593 12.8933 22.3459C12.8334 23.2326 12.8513 24.1312 12.8693 25.0239C12.8933 26.1981 13.8159 27.1087 14.9602 27.1207C16.1643 27.1327 17.0749 26.27 17.1169 25.0478C17.1408 24.2091 17.1289 23.3704 17.1229 22.5316C17.1229 21.9565 16.9012 21.4653 16.2901 20.8781L16.2841 20.8721ZM8.88535 16.5287C9.52638 15.8817 9.70611 15.001 9.35264 14.1743C8.99319 13.3356 8.34617 12.8982 7.42956 12.8803C6.62678 12.8623 5.81801 12.8683 5.01522 12.8803C3.80506 12.8922 2.90042 13.7849 2.87046 14.9831C2.83452 16.1393 3.75113 17.0919 4.96729 17.1338C5.78804 17.1578 6.61479 17.1518 7.43554 17.1338C8.00468 17.1218 8.51392 16.9421 8.88535 16.5347V16.5287ZM26.6604 13.6711C26.1272 13.1199 25.642 12.8863 25.0668 12.8803C24.2101 12.8683 23.3474 12.8563 22.4907 12.8803C21.3824 12.9162 20.5257 13.7849 20.4658 14.8752C20.4059 15.9955 21.1787 16.99 22.299 17.0979C23.3175 17.1937 24.3479 17.2117 25.3664 17.0859C26.1931 16.9781 26.7563 16.4628 27.0139 15.666C27.2715 14.8692 27.0798 14.1563 26.6604 13.6711ZM16.5118 3.51646C15.8408 2.81552 15.032 2.71367 14.1873 3.03718C13.3666 3.3547 12.9113 4.0137 12.8753 4.89437C12.8394 5.76904 12.8394 6.64971 12.8753 7.52438C12.9232 8.66864 13.8758 9.53733 15.0021 9.52535C16.1583 9.51336 17.0749 8.65666 17.1109 7.50641C17.1408 6.64971 17.1169 5.78701 17.1109 4.93031C17.1109 4.37316 16.8892 3.89987 16.4998 3.51646H16.5118Z" fill="white"/>
</svg>
